# xmcd
#
# Track frame offsets: 
#        160
#        23337
#        39322
#        60260
#        77220
#        106230
#        127081
#        145903
#        166436
#        195813
#        216396
#        234840
#        261429
#        273949
#        290446
#
# Disc length: 4108 seconds
#
# Revision: 3
# Processed by: cddbd v1.5.1PL2 Copyright (c) Steve Scherf et al.
# Submitted via: ExactAudioCopy v0.95a5
#
DISCID=ca100a0f
DTITLE=Various Artist - New Old Rhythm And Blues
DYEAR=1998
DGENRE=R&B
TTITLE0=Toscho - Spinning Wheel
TTITLE1=Pretty Things - Judgement Day
TTITLE2=Stan Webb's Chicken Shack - Poor Boy
TTITLE3=Osibisa - Life
TTITLE4=Bireli Lagrene - PSP N2
TTITLE5=Toscho - Route 66
TTITLE6=Stan Webb's Chicken Shack - For All Your Love
TTITLE7=John Handy/Lee Ritenour - Where Go The Boats
TTITLE8=Billy Cobham - Wrapped In A Cloud
TTITLE9=Stan Webb's Chicken Shack - Will You Dance With Me
TTITLE10=Philip Catherine - Nem Um Talvez
TTITLE11=Toscho - Oh Lord
TTITLE12=Stan Webb's Chicken Shack - If Only
TTITLE13=Spencer Davis and Band - On The Green Line
TTITLE14=Jon Lord - Wind In The Willows
EXTD=
EXTT0=
EXTT1=
EXTT2=
EXTT3=
EXTT4=
EXTT5=
EXTT6=
EXTT7=
EXTT8=
EXTT9=
EXTT10=
EXTT11=
EXTT12=
EXTT13=
EXTT14=
PLAYORDER=
